{"asset":{"version":"2.0","generator":"Blockbench 4.12.2 glTF exporter"},"scenes":[{"nodes":[16],"name":"blockbench_export"}],"scene":0,"nodes":[{"translation":[0.125,0.125,0],"name":"bone"},{"name":"bottom","mesh":0},{"translation":[0,0.125,0],"name":"head","mesh":1},{"translation":[0,0.0625,-0.03125],"name":"belly","mesh":2},{"translation":[0,0.1875,0],"name":"head top","mesh":3},{"translation":[0.125,0.125,0],"name":"arm","mesh":4},{"translation":[-0.0625,0.0625,0],"name":"arm","mesh":5},{"translation":[0,0,-0.0625],"name":"leg","mesh":6},{"translation":[0.125,0,-0.0625],"name":"leg","mesh":7},{"translation":[0.125,0,0],"name":"side","mesh":8},{"translation":[-0.0625,0,0],"name":"side","mesh":9},{"translation":[0,0.25,0],"name":"cube","mesh":10},{"translation":[0.125,0.125,0],"name":"side","mesh":11},{"translation":[-0.0625,0.125,0],"name":"side","mesh":12},{"translation":[-0.0625,0.25,0],"name":"side","mesh":13},{"translation":[0.125,0.25,0],"name":"side","mesh":14},{"children":[0,1,2,3,4,5,6,7,8,9,10,11,12,13,14,15]}],"bufferViews":[{"buffer":0,"byteOffset":0,"byteLength":288,"target":34962,"byteStride":12},{"buffer":0,"byteOffset":288,"byteLength":288,"target":34962,"byteStride":12},{"buffer":0,"byteOffset":576,"byteLength":192,"target":34962,"byteStride":8},{"buffer":0,"byteOffset":768,"byteLength":72,"target":34963},{"buffer":0,"byteOffset":840,"byteLength":288,"target":34962,"byteStride":12},{"buffer":0,"byteOffset":1128,"byteLength":288,"target":34962,"byteStride":12},{"buffer":0,"byteOffset":1416,"byteLength":192,"target":34962,"byteStride":8},{"buffer":0,"byteOffset":1608,"byteLength":72,"target":34963},{"buffer":0,"byteOffset":1680,"byteLength":3168,"target":34962,"byteStride":12},{"buffer":0,"byteOffset":4848,"byteLength":3168,"target":34962,"byteStride":12},{"buffer":0,"byteOffset":8016,"byteLength":2112,"target":34962,"byteStride":8},{"buffer":0,"byteOffset":10128,"byteLength":720,"target":34963},{"buffer":0,"byteOffset":10848,"byteLength":288,"target":34962,"byteStride":12},{"buffer":0,"byteOffset":11136,"byteLength":288,"target":34962,"byteStride":12},{"buffer":0,"byteOffset":11424,"byteLength":192,"target":34962,"byteStride":8},{"buffer":0,"byteOffset":11616,"byteLength":72,"target":34963},{"buffer":0,"byteOffset":11688,"byteLength":288,"target":34962,"byteStride":12},{"buffer":0,"byteOffset":11976,"byteLength":288,"target":34962,"byteStride":12},{"buffer":0,"byteOffset":12264,"byteLength":192,"target":34962,"byteStride":8},{"buffer":0,"byteOffset":12456,"byteLength":72,"target":34963},{"buffer":0,"byteOffset":12528,"byteLength":288,"target":34962,"byteStride":12},{"buffer":0,"byteOffset":12816,"byteLength":288,"target":34962,"byteStride":12},{"buffer":0,"byteOffset":13104,"byteLength":192,"target":34962,"byteStride":8},{"buffer":0,"byteOffset":13296,"byteLength":72,"target":34963},{"buffer":0,"byteOffset":13368,"byteLength":288,"target":34962,"byteStride":12},{"buffer":0,"byteOffset":13656,"byteLength":288,"target":34962,"byteStride":12},{"buffer":0,"byteOffset":13944,"byteLength":192,"target":34962,"byteStride":8},{"buffer":0,"byteOffset":14136,"byteLength":72,"target":34963},{"buffer":0,"byteOffset":14208,"byteLength":288,"target":34962,"byteStride":12},{"buffer":0,"byteOffset":14496,"byteLength":288,"target":34962,"byteStride":12},{"buffer":0,"byteOffset":14784,"byteLength":192,"target":34962,"byteStride":8},{"buffer":0,"byteOffset":14976,"byteLength":72,"target":34963},{"buffer":0,"byteOffset":15048,"byteLength":288,"target":34962,"byteStride":12},{"buffer":0,"byteOffset":15336,"byteLength":288,"target":34962,"byteStride":12},{"buffer":0,"byteOffset":15624,"byteLength":192,"target":34962,"byteStride":8},{"buffer":0,"byteOffset":15816,"byteLength":72,"target":34963},{"buffer":0,"byteOffset":15888,"byteLength":288,"target":34962,"byteStride":12},{"buffer":0,"byteOffset":16176,"byteLength":288,"target":34962,"byteStride":12},{"buffer":0,"byteOffset":16464,"byteLength":192,"target":34962,"byteStride":8},{"buffer":0,"byteOffset":16656,"byteLength":72,"target":34963},{"buffer":0,"byteOffset":16728,"byteLength":288,"target":34962,"byteStride":12},{"buffer":0,"byteOffset":17016,"byteLength":288,"target":34962,"byteStride":12},{"buffer":0,"byteOffset":17304,"byteLength":192,"target":34962,"byteStride":8},{"buffer":0,"byteOffset":17496,"byteLength":72,"target":34963},{"buffer":0,"byteOffset":17568,"byteLength":288,"target":34962,"byteStride":12},{"buffer":0,"byteOffset":17856,"byteLength":288,"target":34962,"byteStride":12},{"buffer":0,"byteOffset":18144,"byteLength":192,"target":34962,"byteStride":8},{"buffer":0,"byteOffset":18336,"byteLength":12,"target":34963},{"buffer":0,"byteOffset":18348,"byteLength":12,"target":34963},{"buffer":0,"byteOffset":18360,"byteLength":12,"target":34963},{"buffer":0,"byteOffset":18372,"byteLength":12,"target":34963},{"buffer":0,"byteOffset":18384,"byteLength":24,"target":34963},{"buffer":0,"byteOffset":18408,"byteLength":288,"target":34962,"byteStride":12},{"buffer":0,"byteOffset":18696,"byteLength":288,"target":34962,"byteStride":12},{"buffer":0,"byteOffset":18984,"byteLength":192,"target":34962,"byteStride":8},{"buffer":0,"byteOffset":19176,"byteLength":12,"target":34963},{"buffer":0,"byteOffset":19188,"byteLength":12,"target":34963},{"buffer":0,"byteOffset":19200,"byteLength":12,"target":34963},{"buffer":0,"byteOffset":19212,"byteLength":12,"target":34963},{"buffer":0,"byteOffset":19224,"byteLength":24,"target":34963},{"buffer":0,"byteOffset":19248,"byteLength":288,"target":34962,"byteStride":12},{"buffer":0,"byteOffset":19536,"byteLength":288,"target":34962,"byteStride":12},{"buffer":0,"byteOffset":19824,"byteLength":192,"target":34962,"byteStride":8},{"buffer":0,"byteOffset":20016,"byteLength":72,"target":34963},{"buffer":0,"byteOffset":20088,"byteLength":288,"target":34962,"byteStride":12},{"buffer":0,"byteOffset":20376,"byteLength":288,"target":34962,"byteStride":12},{"buffer":0,"byteOffset":20664,"byteLength":192,"target":34962,"byteStride":8},{"buffer":0,"byteOffset":20856,"byteLength":72,"target":34963}],"buffers":[{"byteLength":20928,"uri":"data:application/octet-stream;base64,"}],"accessors":[{"bufferView":0,"componentType":5126,"count":24,"max":[0.0625,0.125,0.0625],"min":[-0.0625,0,-0.0625],"type":"VEC3"},{"bufferView":1,"componentType":5126,"count":24,"max":[1,1,1],"min":[-1,-1,-1],"type":"VEC3"},{"bufferView":2,"componentType":5126,"count":24,"max":[0.75,0.75],"min":[0,0],"type":"VEC2"},{"bufferView":3,"componentType":5123,"count":36,"max":[23],"min":[0],"type":"SCALAR"},{"bufferView":4,"componentType":5126,"count":24,"max":[0.078125,0.08437500149011612,0.0625],"min":[-0.078125,0,-0.0625],"type":"VEC3"},{"bufferView":5,"componentType":5126,"count":24,"max":[1,1,1],"min":[-1,-1,-1],"type":"VEC3"},{"bufferView":6,"componentType":5126,"count":24,"max":[0.71875,0.71875],"min":[0,0],"type":"VEC2"},{"bufferView":7,"componentType":5123,"count":36,"max":[23],"min":[0],"type":"SCALAR"},{"bufferView":8,"componentType":5126,"count":264,"max":[0.08906249701976776,0.078125,0.0625],"min":[-0.08906249701976776,-0.078125,-0.0625],"type":"VEC3"},{"bufferView":9,"componentType":5126,"count":264,"max":[0.9563765525817871,0.9734715819358826,0.9777876734733582],"min":[-0.9563765525817871,-0.9734715819358826,-0.9777876734733582],"type":"VEC3"},{"bufferView":10,"componentType":5126,"count":264,"max":[0.9896066784858704,0.9676138758659363],"min":[0.0011689957464113832,0],"type":"VEC2"},{"bufferView":11,"componentType":5123,"count":360,"max":[263],"min":[0],"type":"SCALAR"},{"bufferView":12,"componentType":5126,"count":24,"max":[0.078125,0.06812500208616257,0.0625],"min":[-0.078125,0.021250000223517418,-0.0625],"type":"VEC3"},{"bufferView":13,"componentType":5126,"count":24,"max":[1,1,1],"min":[-1,-1,-1],"type":"VEC3"},{"bufferView":14,"componentType":5126,"count":24,"max":[0.9375,0.9375],"min":[0,0],"type":"VEC2"},{"bufferView":15,"componentType":5123,"count":36,"max":[23],"min":[0],"type":"SCALAR"},{"bufferView":16,"componentType":5126,"count":24,"max":[-0.03125,0,0],"min":[-0.0625,-0.03125,-0.09375],"type":"VEC3"},{"bufferView":17,"componentType":5126,"count":24,"max":[1,1,1],"min":[-1,-1,-1],"type":"VEC3"},{"bufferView":18,"componentType":5126,"count":24,"max":[0.625,0.875],"min":[0,0],"type":"VEC2"},{"bufferView":19,"componentType":5123,"count":36,"max":[23],"min":[0],"type":"SCALAR"},{"bufferView":20,"componentType":5126,"count":24,"max":[0,0.0625,0],"min":[-0.03125,0.03125,-0.09375],"type":"VEC3"},{"bufferView":21,"componentType":5126,"count":24,"max":[1,1,1],"min":[-1,-1,-1],"type":"VEC3"},{"bufferView":22,"componentType":5126,"count":24,"max":[0.625,0.875],"min":[0,0],"type":"VEC2"},{"bufferView":23,"componentType":5123,"count":36,"max":[23],"min":[0],"type":"SCALAR"},{"bufferView":24,"componentType":5126,"count":24,"max":[-0.03125,0.03125,0],"min":[-0.078125,0,-0.046875],"type":"VEC3"},{"bufferView":25,"componentType":5126,"count":24,"max":[1,1,1],"min":[-1,-1,-1],"type":"VEC3"},{"bufferView":26,"componentType":5126,"count":24,"max":[0.625,0.625],"min":[0,0],"type":"VEC2"},{"bufferView":27,"componentType":5123,"count":36,"max":[23],"min":[0],"type":"SCALAR"},{"bufferView":28,"componentType":5126,"count":24,"max":[-0.046875,0.03125,0],"min":[-0.09375,0,-0.046875],"type":"VEC3"},{"bufferView":29,"componentType":5126,"count":24,"max":[1,1,1],"min":[-1,-1,-1],"type":"VEC3"},{"bufferView":30,"componentType":5126,"count":24,"max":[0.625,0.625],"min":[0,0],"type":"VEC2"},{"bufferView":31,"componentType":5123,"count":36,"max":[23],"min":[0],"type":"SCALAR"},{"bufferView":32,"componentType":5126,"count":24,"max":[-0.02500000037252903,0.125,0.0625],"min":[-0.0625,0,-0.0625],"type":"VEC3"},{"bufferView":33,"componentType":5126,"count":24,"max":[1,1,1],"min":[-1,-1,-1],"type":"VEC3"},{"bufferView":34,"componentType":5126,"count":24,"max":[0.90625,1],"min":[0,0],"type":"VEC2"},{"bufferView":35,"componentType":5123,"count":36,"max":[23],"min":[0],"type":"SCALAR"},{"bufferView":36,"componentType":5126,"count":24,"max":[0,0.125,0.0625],"min":[-0.03750000149011612,0,-0.0625],"type":"VEC3"},{"bufferView":37,"componentType":5126,"count":24,"max":[1,1,1],"min":[-1,-1,-1],"type":"VEC3"},{"bufferView":38,"componentType":5126,"count":24,"max":[0.90625,1],"min":[0,0],"type":"VEC2"},{"bufferView":39,"componentType":5123,"count":36,"max":[23],"min":[0],"type":"SCALAR"},{"bufferView":40,"componentType":5126,"count":24,"max":[0.0625,0.02812499925494194,0.0625],"min":[-0.0625,0.0062500000931322575,-0.0625],"type":"VEC3"},{"bufferView":41,"componentType":5126,"count":24,"max":[1,1,1],"min":[-1,-1,-1],"type":"VEC3"},{"bufferView":42,"componentType":5126,"count":24,"max":[1,1],"min":[0,0],"type":"VEC2"},{"bufferView":43,"componentType":5123,"count":36,"max":[23],"min":[0],"type":"SCALAR"},{"bufferView":44,"componentType":5126,"count":24,"max":[-0.02812499925494194,0.078125,0.0625],"min":[-0.046875,0,-0.0625],"type":"VEC3"},{"bufferView":45,"componentType":5126,"count":24,"max":[1,1,1],"min":[-1,-1,-1],"type":"VEC3"},{"bufferView":46,"componentType":5126,"count":24,"max":[0.90625,1],"min":[0,0],"type":"VEC2"},{"bufferView":47,"componentType":5123,"count":6,"max":[3],"min":[0],"type":"SCALAR"},{"bufferView":48,"componentType":5123,"count":6,"max":[7],"min":[4],"type":"SCALAR"},{"bufferView":49,"componentType":5123,"count":6,"max":[11],"min":[8],"type":"SCALAR"},{"bufferView":50,"componentType":5123,"count":6,"max":[15],"min":[12],"type":"SCALAR"},{"bufferView":51,"componentType":5123,"count":12,"max":[23],"min":[16],"type":"SCALAR"},{"bufferView":52,"componentType":5126,"count":24,"max":[-0.015625,0.078125,0.0625],"min":[-0.03437500074505806,0,-0.0625],"type":"VEC3"},{"bufferView":53,"componentType":5126,"count":24,"max":[1,1,1],"min":[-1,-1,-1],"type":"VEC3"},{"bufferView":54,"componentType":5126,"count":24,"max":[0.90625,1],"min":[0,0],"type":"VEC2"},{"bufferView":55,"componentType":5123,"count":6,"max":[3],"min":[0],"type":"SCALAR"},{"bufferView":56,"componentType":5123,"count":6,"max":[7],"min":[4],"type":"SCALAR"},{"bufferView":57,"componentType":5123,"count":6,"max":[11],"min":[8],"type":"SCALAR"},{"bufferView":58,"componentType":5123,"count":6,"max":[15],"min":[12],"type":"SCALAR"},{"bufferView":59,"componentType":5123,"count":12,"max":[23],"min":[16],"type":"SCALAR"},{"bufferView":60,"componentType":5126,"count":24,"max":[-0.015625,0,0.0625],"min":[-0.03437500074505806,-0.046875,-0.0625],"type":"VEC3"},{"bufferView":61,"componentType":5126,"count":24,"max":[1,1,1],"min":[-1,-1,-1],"type":"VEC3"},{"bufferView":62,"componentType":5126,"count":24,"max":[0.90625,1],"min":[0,0],"type":"VEC2"},{"bufferView":63,"componentType":5123,"count":36,"max":[23],"min":[0],"type":"SCALAR"},{"bufferView":64,"componentType":5126,"count":24,"max":[-0.02812499925494194,0,0.0625],"min":[-0.046875,-0.046875,-0.0625],"type":"VEC3"},{"bufferView":65,"componentType":5126,"count":24,"max":[1,1,1],"min":[-1,-1,-1],"type":"VEC3"},{"bufferView":66,"componentType":5126,"count":24,"max":[0.578125,1],"min":[0,0],"type":"VEC2"},{"bufferView":67,"componentType":5123,"count":36,"max":[23],"min":[0],"type":"SCALAR"}],"materials":[{"pbrMetallicRoughness":{"metallicFactor":0,"roughnessFactor":1,"baseColorTexture":{"index":0}},"alphaMode":"MASK","alphaCutoff":0.05,"doubleSided":true},{"pbrMetallicRoughness":{"metallicFactor":0,"roughnessFactor":1,"baseColorTexture":{"index":1}},"alphaMode":"MASK","alphaCutoff":0.05,"doubleSided":true},{"pbrMetallicRoughness":{"metallicFactor":0,"roughnessFactor":1,"baseColorTexture":{"index":2}},"alphaMode":"MASK","alphaCutoff":0.05,"doubleSided":true},{"pbrMetallicRoughness":{"metallicFactor":0,"roughnessFactor":1,"baseColorTexture":{"index":3}},"alphaMode":"MASK","alphaCutoff":0.05,"doubleSided":true},{"pbrMetallicRoughness":{"metallicFactor":0,"roughnessFactor":1,"baseColorTexture":{"index":4}},"alphaMode":"MASK","alphaCutoff":0.05,"doubleSided":true},{"pbrMetallicRoughness":{"metallicFactor":0,"roughnessFactor":1,"baseColorTexture":{"index":5}},"alphaMode":"MASK","alphaCutoff":0.05,"doubleSided":true},{"pbrMetallicRoughness":{"metallicFactor":0,"roughnessFactor":1,"baseColorTexture":{"index":6}},"alphaMode":"MASK","alphaCutoff":0.05,"doubleSided":true},{"pbrMetallicRoughness":{"metallicFactor":0,"roughnessFactor":1,"baseColorTexture":{"index":7}},"alphaMode":"MASK","alphaCutoff":0.05,"doubleSided":true},{"pbrMetallicRoughness":{"metallicFactor":0,"roughnessFactor":1,"baseColorTexture":{"index":8}},"alphaMode":"MASK","alphaCutoff":0.05,"doubleSided":true},{"pbrMetallicRoughness":{"metallicFactor":0,"roughnessFactor":1,"baseColorTexture":{"index":9}},"alphaMode":"MASK","alphaCutoff":0.05,"doubleSided":true},{"pbrMetallicRoughness":{"metallicFactor":0,"roughnessFactor":1,"baseColorTexture":{"index":10}},"alphaMode":"MASK","alphaCutoff":0.05,"doubleSided":true},{"pbrMetallicRoughness":{"metallicFactor":0,"roughnessFactor":1,"baseColorTexture":{"index":11}},"alphaMode":"MASK","alphaCutoff":0.05,"doubleSided":true},{"pbrMetallicRoughness":{"metallicFactor":0,"roughnessFactor":1},"alphaMode":"MASK","alphaCutoff":0.05,"doubleSided":true},{"pbrMetallicRoughness":{"metallicFactor":0,"roughnessFactor":1,"baseColorTexture":{"index":12}},"alphaMode":"MASK","alphaCutoff":0.05,"doubleSided":true},{"pbrMetallicRoughness":{"metallicFactor":0,"roughnessFactor":1,"baseColorTexture":{"index":13}},"alphaMode":"MASK","alphaCutoff":0.05,"doubleSided":true}],"textures":[{"sampler":0,"source":0,"name":"bottom"},{"sampler":1,"source":1,"name":"texture"},{"sampler":2,"source":2,"name":"belly"},{"sampler":3,"source":3,"name":"head top"},{"sampler":4,"source":4,"name":"hand"},{"sampler":5,"source":5,"name":"hand"},{"sampler":6,"source":6,"name":"leg"},{"sampler":7,"source":7,"name":"leg"},{"sampler":8,"source":8,"name":"texture"},{"sampler":9,"source":9,"name":"texture"},{"sampler":10,"source":10,"name":"sideeye"},{"sampler":11,"source":11,"name":"side"},{"sampler":12,"source":12,"name":"side"},{"sampler":13,"source":13,"name":"eye"}],"samplers":[{"magFilter":9728,"minFilter":9728,"wrapS":33071,"wrapT":33071},{"magFilter":9728,"minFilter":9728,"wrapS":33071,"wrapT":33071},{"magFilter":9728,"minFilter":9728,"wrapS":33071,"wrapT":33071},{"magFilter":9728,"minFilter":9728,"wrapS":33071,"wrapT":33071},{"magFilter":9728,"minFilter":9728,"wrapS":33071,"wrapT":33071},{"magFilter":9728,"minFilter":9728,"wrapS":33071,"wrapT":33071},{"magFilter":9728,"minFilter":9728,"wrapS":33071,"wrapT":33071},{"magFilter":9728,"minFilter":9728,"wrapS":33071,"wrapT":33071},{"magFilter":9728,"minFilter":9728,"wrapS":33071,"wrapT":33071},{"magFilter":9728,"minFilter":9728,"wrapS":33071,"wrapT":33071},{"magFilter":9728,"minFilter":9728,"wrapS":33071,"wrapT":33071},{"magFilter":9728,"minFilter":9728,"wrapS":33071,"wrapT":33071},{"magFilter":9728,"minFilter":9728,"wrapS":33071,"wrapT":33071},{"magFilter":9728,"minFilter":9728,"wrapS":33071,"wrapT":33071}],"images":[{"mimeType":"image/png","uri":"data:image/png;base64,"},{"mimeType":"image/png","uri":"data:image/png;base64,"},{"mimeType":"image/png","uri":"data:image/png;base64,"},{"mimeType":"image/png","uri":"data:image/png;base64,"},{"mimeType":"image/png","uri":"data:image/png;base64,"},{"mimeType":"image/png","uri":"data:image/png;base64,"},{"mimeType":"image/png","uri":"data:image/png;base64,"},{"mimeType":"image/png","uri":"data:image/png;base64,"},{"mimeType":"image/png","uri":"data:image/png;base64,"},{"mimeType":"image/png","uri":"data:image/png;base64,"},{"mimeType":"image/png","uri":"data:image/png;base64,"},{"mimeType":"image/png","uri":"data:image/png;base64,"},{"mimeType":"image/png","uri":"data:image/png;base64,"},{"mimeType":"image/png","uri":"data:image/png;base64,"}],"meshes":[{"primitives":[{"mode":4,"attributes":{"POSITION":0,"NORMAL":1,"TEXCOORD_0":2},"indices":3,"material":0}]},{"primitives":[{"mode":4,"attributes":{"POSITION":4,"NORMAL":5,"TEXCOORD_0":6},"indices":7,"material":1}]},{"primitives":[{"mode":4,"attributes":{"POSITION":8,"NORMAL":9,"TEXCOORD_0":10},"indices":11,"material":2}]},{"primitives":[{"mode":4,"attributes":{"POSITION":12,"NORMAL":13,"TEXCOORD_0":14},"indices":15,"material":3}]},{"primitives":[{"mode":4,"attributes":{"POSITION":16,"NORMAL":17,"TEXCOORD_0":18},"indices":19,"material":4}]},{"primitives":[{"mode":4,"attributes":{"POSITION":20,"NORMAL":21,"TEXCOORD_0":22},"indices":23,"material":5}]},{"primitives":[{"mode":4,"attributes":{"POSITION":24,"NORMAL":25,"TEXCOORD_0":26},"indices":27,"material":6}]},{"primitives":[{"mode":4,"attributes":{"POSITION":28,"NORMAL":29,"TEXCOORD_0":30},"indices":31,"material":7}]},{"primitives":[{"mode":4,"attributes":{"POSITION":32,"NORMAL":33,"TEXCOORD_0":34},"indices":35,"material":8}]},{"primitives":[{"mode":4,"attributes":{"POSITION":36,"NORMAL":37,"TEXCOORD_0":38},"indices":39,"material":9}]},{"primitives":[{"mode":4,"attributes":{"POSITION":40,"NORMAL":41,"TEXCOORD_0":42},"indices":43,"material":10}]},{"primitives":[{"mode":4,"attributes":{"POSITION":44,"NORMAL":45,"TEXCOORD_0":46},"indices":47,"material":11},{"mode":4,"attributes":{"POSITION":44,"NORMAL":45,"TEXCOORD_0":46},"indices":48,"material":12},{"mode":4,"attributes":{"POSITION":44,"NORMAL":45,"TEXCOORD_0":46},"indices":49,"material":12},{"mode":4,"attributes":{"POSITION":44,"NORMAL":45,"TEXCOORD_0":46},"indices":50,"material":12},{"mode":4,"attributes":{"POSITION":44,"NORMAL":45,"TEXCOORD_0":46},"indices":51,"material":11}]},{"primitives":[{"mode":4,"attributes":{"POSITION":52,"NORMAL":53,"TEXCOORD_0":54},"indices":55,"material":12},{"mode":4,"attributes":{"POSITION":52,"NORMAL":53,"TEXCOORD_0":54},"indices":56,"material":11},{"mode":4,"attributes":{"POSITION":52,"NORMAL":53,"TEXCOORD_0":54},"indices":57,"material":12},{"mode":4,"attributes":{"POSITION":52,"NORMAL":53,"TEXCOORD_0":54},"indices":58,"material":12},{"mode":4,"attributes":{"POSITION":52,"NORMAL":53,"TEXCOORD_0":54},"indices":59,"material":11}]},{"primitives":[{"mode":4,"attributes":{"POSITION":60,"NORMAL":61,"TEXCOORD_0":62},"indices":63,"material":13}]},{"primitives":[{"mode":4,"attributes":{"POSITION":64,"NORMAL":65,"TEXCOORD_0":66},"indices":67,"material":14}]}]}